<mxfile host="65bd71144e">
    <diagram id="CcuJVi4OZ5Z77z4fAvBe" name="Page-1">
        <mxGraphModel dx="988" dy="1550" grid="1" gridSize="10" guides="1" tooltips="1" connect="1" arrows="1" fold="1" page="1" pageScale="1" pageWidth="850" pageHeight="1100" math="0" shadow="0">
            <root>
                <mxCell id="0"/>
                <mxCell id="1" parent="0"/>
                <mxCell id="18" value="" style="edgeStyle=none;html=1;" parent="1" source="2" target="17" edge="1">
                    <mxGeometry relative="1" as="geometry"/>
                </mxCell>
                <mxCell id="20" value="" style="edgeStyle=none;html=1;" parent="1" source="2" target="19" edge="1">
                    <mxGeometry relative="1" as="geometry"/>
                </mxCell>
                <mxCell id="21" value="" style="edgeStyle=none;html=1;" parent="1" source="2" target="19" edge="1">
                    <mxGeometry relative="1" as="geometry"/>
                </mxCell>
                <mxCell id="23" value="" style="edgeStyle=none;html=1;" parent="1" source="2" target="22" edge="1">
                    <mxGeometry relative="1" as="geometry"/>
                </mxCell>
                <mxCell id="2" value="Master Service" style="rounded=1;whiteSpace=wrap;html=1;" parent="1" vertex="1">
                    <mxGeometry x="340" y="80" width="120" height="60" as="geometry"/>
                </mxCell>
                <mxCell id="29" value="" style="edgeStyle=none;html=1;entryX=-0.02;entryY=0.925;entryDx=0;entryDy=0;entryPerimeter=0;" parent="1" source="3" target="33" edge="1">
                    <mxGeometry relative="1" as="geometry">
                        <mxPoint x="725" y="110" as="targetPoint"/>
                    </mxGeometry>
                </mxCell>
                <mxCell id="3" value="Master DB" style="shape=cylinder3;whiteSpace=wrap;html=1;boundedLbl=1;backgroundOutline=1;size=15;" parent="1" vertex="1">
                    <mxGeometry x="585" y="65" width="70" height="90" as="geometry"/>
                </mxCell>
                <mxCell id="4" value="" style="endArrow=classic;html=1;entryX=0;entryY=0.5;entryDx=0;entryDy=0;entryPerimeter=0;exitX=1;exitY=0.5;exitDx=0;exitDy=0;" parent="1" source="2" target="3" edge="1">
                    <mxGeometry width="50" height="50" relative="1" as="geometry">
                        <mxPoint x="400" y="150" as="sourcePoint"/>
                        <mxPoint x="450" y="100" as="targetPoint"/>
                        <Array as="points">
                            <mxPoint x="530" y="110"/>
                        </Array>
                    </mxGeometry>
                </mxCell>
                <mxCell id="41" value="" style="edgeStyle=none;html=1;" parent="1" source="17" target="38" edge="1">
                    <mxGeometry relative="1" as="geometry"/>
                </mxCell>
                <mxCell id="82" value="" style="edgeStyle=none;html=1;fontSize=14;" parent="1" source="17" target="81" edge="1">
                    <mxGeometry relative="1" as="geometry"/>
                </mxCell>
                <mxCell id="17" value="Chain 1 Service(Evrmore)" style="rounded=1;whiteSpace=wrap;html=1;" parent="1" vertex="1">
                    <mxGeometry x="120" y="230" width="120" height="60" as="geometry"/>
                </mxCell>
                <mxCell id="42" value="" style="edgeStyle=none;html=1;" parent="1" source="19" target="37" edge="1">
                    <mxGeometry relative="1" as="geometry"/>
                </mxCell>
                <mxCell id="85" value="" style="edgeStyle=none;html=1;fontSize=14;" parent="1" source="19" target="37" edge="1">
                    <mxGeometry relative="1" as="geometry"/>
                </mxCell>
                <mxCell id="87" value="" style="edgeStyle=none;html=1;fontSize=14;" parent="1" source="19" target="86" edge="1">
                    <mxGeometry relative="1" as="geometry"/>
                </mxCell>
                <mxCell id="19" value="chain 3 service(Satori)" style="rounded=1;whiteSpace=wrap;html=1;" parent="1" vertex="1">
                    <mxGeometry x="560" y="230" width="120" height="60" as="geometry"/>
                </mxCell>
                <mxCell id="40" value="" style="edgeStyle=none;html=1;" parent="1" source="22" target="36" edge="1">
                    <mxGeometry relative="1" as="geometry"/>
                </mxCell>
                <mxCell id="84" value="" style="edgeStyle=none;html=1;fontSize=14;" parent="1" source="22" target="83" edge="1">
                    <mxGeometry relative="1" as="geometry"/>
                </mxCell>
                <mxCell id="22" value="Chain 2 Service(Ravencoin)" style="rounded=1;whiteSpace=wrap;html=1;" parent="1" vertex="1">
                    <mxGeometry x="340" y="300" width="120" height="60" as="geometry"/>
                </mxCell>
                <mxCell id="32" value="Tables" style="swimlane;fontStyle=0;childLayout=stackLayout;horizontal=1;startSize=30;horizontalStack=0;resizeParent=1;resizeParentMax=0;resizeLast=0;collapsible=1;marginBottom=0;whiteSpace=wrap;html=1;strokeWidth=1;fillColor=none;" parent="1" vertex="1">
                    <mxGeometry x="700" y="80" width="140" height="90" as="geometry"/>
                </mxCell>
                <mxCell id="33" value="Wallets with chain and network" style="text;strokeColor=none;fillColor=none;align=left;verticalAlign=middle;spacingLeft=4;spacingRight=4;overflow=hidden;points=[[0,0.5],[1,0.5]];portConstraint=eastwest;rotatable=0;whiteSpace=wrap;html=1;strokeWidth=1;" parent="32" vertex="1">
                    <mxGeometry y="30" width="140" height="30" as="geometry"/>
                </mxCell>
                <mxCell id="78" value="Assets" style="text;strokeColor=none;fillColor=none;align=left;verticalAlign=middle;spacingLeft=4;spacingRight=4;overflow=hidden;points=[[0,0.5],[1,0.5]];portConstraint=eastwest;rotatable=0;whiteSpace=wrap;html=1;strokeWidth=1;" parent="32" vertex="1">
                    <mxGeometry y="60" width="140" height="30" as="geometry"/>
                </mxCell>
                <mxCell id="36" value="DB2" style="shape=cylinder3;whiteSpace=wrap;html=1;boundedLbl=1;backgroundOutline=1;size=15;strokeWidth=1;fillColor=none;" parent="1" vertex="1">
                    <mxGeometry x="290" y="380" width="70" height="80" as="geometry"/>
                </mxCell>
                <mxCell id="37" value="DB2" style="shape=cylinder3;whiteSpace=wrap;html=1;boundedLbl=1;backgroundOutline=1;size=15;strokeWidth=1;fillColor=none;" parent="1" vertex="1">
                    <mxGeometry x="760" y="350" width="70" height="80" as="geometry"/>
                </mxCell>
                <mxCell id="38" value="DB 1" style="shape=cylinder3;whiteSpace=wrap;html=1;boundedLbl=1;backgroundOutline=1;size=15;strokeWidth=1;fillColor=none;" parent="1" vertex="1">
                    <mxGeometry x="10" y="330" width="70" height="80" as="geometry"/>
                </mxCell>
                <mxCell id="43" value="Tables for DB1, DB2 and DB3" style="swimlane;fontStyle=0;childLayout=stackLayout;horizontal=1;startSize=30;horizontalStack=0;resizeParent=1;resizeParentMax=0;resizeLast=0;collapsible=1;marginBottom=0;whiteSpace=wrap;html=1;strokeWidth=1;fillColor=none;" parent="1" vertex="1">
                    <mxGeometry y="570" width="200" height="210" as="geometry">
                        <mxRectangle x="40" y="480" width="80" height="30" as="alternateBounds"/>
                    </mxGeometry>
                </mxCell>
                <mxCell id="44" value="Derived Children" style="text;strokeColor=none;fillColor=none;align=left;verticalAlign=middle;spacingLeft=4;spacingRight=4;overflow=hidden;points=[[0,0.5],[1,0.5]];portConstraint=eastwest;rotatable=0;whiteSpace=wrap;html=1;strokeWidth=1;" parent="43" vertex="1">
                    <mxGeometry y="30" width="200" height="30" as="geometry"/>
                </mxCell>
                <mxCell id="58" value="Derived balance" style="text;strokeColor=none;fillColor=none;align=left;verticalAlign=middle;spacingLeft=4;spacingRight=4;overflow=hidden;points=[[0,0.5],[1,0.5]];portConstraint=eastwest;rotatable=0;whiteSpace=wrap;html=1;strokeWidth=1;" parent="43" vertex="1">
                    <mxGeometry y="60" width="200" height="30" as="geometry"/>
                </mxCell>
                <mxCell id="45" value="Unspent" style="text;strokeColor=none;fillColor=none;align=left;verticalAlign=middle;spacingLeft=4;spacingRight=4;overflow=hidden;points=[[0,0.5],[1,0.5]];portConstraint=eastwest;rotatable=0;whiteSpace=wrap;html=1;strokeWidth=1;" parent="43" vertex="1">
                    <mxGeometry y="90" width="200" height="30" as="geometry"/>
                </mxCell>
                <mxCell id="46" value="Vout" style="text;strokeColor=none;fillColor=none;align=left;verticalAlign=middle;spacingLeft=4;spacingRight=4;overflow=hidden;points=[[0,0.5],[1,0.5]];portConstraint=eastwest;rotatable=0;whiteSpace=wrap;html=1;strokeWidth=1;" parent="43" vertex="1">
                    <mxGeometry y="120" width="200" height="30" as="geometry"/>
                </mxCell>
                <mxCell id="57" value="Vin" style="text;strokeColor=none;fillColor=none;align=left;verticalAlign=middle;spacingLeft=4;spacingRight=4;overflow=hidden;points=[[0,0.5],[1,0.5]];portConstraint=eastwest;rotatable=0;whiteSpace=wrap;html=1;strokeWidth=1;" parent="43" vertex="1">
                    <mxGeometry y="150" width="200" height="30" as="geometry"/>
                </mxCell>
                <mxCell id="56" value="Transaction" style="text;strokeColor=none;fillColor=none;align=left;verticalAlign=middle;spacingLeft=4;spacingRight=4;overflow=hidden;points=[[0,0.5],[1,0.5]];portConstraint=eastwest;rotatable=0;whiteSpace=wrap;html=1;strokeWidth=1;" parent="43" vertex="1">
                    <mxGeometry y="180" width="200" height="30" as="geometry"/>
                </mxCell>
                <mxCell id="72" value="Client Side App" style="rounded=1;whiteSpace=wrap;html=1;" parent="1" vertex="1">
                    <mxGeometry x="10" y="80" width="120" height="60" as="geometry"/>
                </mxCell>
                <mxCell id="76" value="" style="endArrow=classic;html=1;entryX=0;entryY=0.5;entryDx=0;entryDy=0;exitX=1;exitY=0.5;exitDx=0;exitDy=0;" parent="1" source="72" target="2" edge="1">
                    <mxGeometry relative="1" as="geometry">
                        <mxPoint x="180" y="109.5" as="sourcePoint"/>
                        <mxPoint x="280" y="109.5" as="targetPoint"/>
                    </mxGeometry>
                </mxCell>
                <mxCell id="77" value="API Calls" style="edgeLabel;resizable=0;html=1;align=center;verticalAlign=middle;strokeWidth=1;fillColor=none;" parent="76" connectable="0" vertex="1">
                    <mxGeometry relative="1" as="geometry">
                        <mxPoint x="5" as="offset"/>
                    </mxGeometry>
                </mxCell>
                <mxCell id="79" value="&lt;h1 style=&quot;font-size: 14px;&quot;&gt;&lt;span style=&quot;font-weight: 400;&quot;&gt;When get balance calls arrives then call all the sub services and get the balance from each services&lt;/span&gt;&lt;/h1&gt;&lt;h1 style=&quot;font-size: 14px;&quot;&gt;&lt;span style=&quot;font-weight: normal;&quot;&gt;&lt;br&gt;&lt;/span&gt;&lt;/h1&gt;&lt;h1 style=&quot;font-size: 14px;&quot;&gt;&lt;span style=&quot;font-weight: normal;&quot;&gt;if call arrives for a single chain then deternime the chain based on the xPubkey and connect to respective service&lt;/span&gt;&lt;/h1&gt;&lt;div&gt;Transaction is also be created at master service even for a single asset&lt;/div&gt;" style="text;html=1;strokeColor=none;fillColor=none;spacing=5;spacingTop=-20;whiteSpace=wrap;overflow=hidden;rounded=0;" parent="1" vertex="1">
                    <mxGeometry x="460" y="-180" width="390" height="160" as="geometry"/>
                </mxCell>
                <mxCell id="80" value="" style="curved=1;endArrow=classic;html=1;fontSize=14;entryX=0;entryY=1;entryDx=0;entryDy=0;" parent="1" target="79" edge="1">
                    <mxGeometry width="50" height="50" relative="1" as="geometry">
                        <mxPoint x="460" y="100" as="sourcePoint"/>
                        <mxPoint x="510" y="50" as="targetPoint"/>
                        <Array as="points">
                            <mxPoint x="510" y="100"/>
                            <mxPoint x="500" y="40"/>
                            <mxPoint x="460" y="50"/>
                        </Array>
                    </mxGeometry>
                </mxCell>
                <mxCell id="81" value="Chain 1 Electrum Server" style="rounded=1;whiteSpace=wrap;html=1;" parent="1" vertex="1">
                    <mxGeometry x="140" y="350" width="120" height="60" as="geometry"/>
                </mxCell>
                <mxCell id="83" value="Chain 2 Electrum Server" style="rounded=1;whiteSpace=wrap;html=1;" parent="1" vertex="1">
                    <mxGeometry x="390" y="450" width="120" height="60" as="geometry"/>
                </mxCell>
                <mxCell id="86" value="chain 3 Electrum Service" style="rounded=1;whiteSpace=wrap;html=1;" parent="1" vertex="1">
                    <mxGeometry x="560" y="370" width="120" height="60" as="geometry"/>
                </mxCell>
                <mxCell id="89" value="Each service will connect to electrum&amp;nbsp;&amp;nbsp;and subscription&amp;nbsp;individually,&lt;br&gt;If connections are common for all then connections will be stored in master service and multiple connections will be handle at the master service" style="text;html=1;strokeColor=none;fillColor=none;align=left;verticalAlign=top;whiteSpace=wrap;rounded=0;strokeWidth=1;fontSize=14;" parent="1" vertex="1">
                    <mxGeometry x="470" y="640" width="350" height="90" as="geometry"/>
                </mxCell>
                <mxCell id="90" value="" style="curved=1;endArrow=classic;html=1;fontSize=14;entryX=0.417;entryY=-0.037;entryDx=0;entryDy=0;entryPerimeter=0;" parent="1" target="89" edge="1">
                    <mxGeometry width="50" height="50" relative="1" as="geometry">
                        <mxPoint x="630" y="440" as="sourcePoint"/>
                        <mxPoint x="550" y="540" as="targetPoint"/>
                        <Array as="points">
                            <mxPoint x="550" y="590"/>
                            <mxPoint x="690" y="540"/>
                            <mxPoint x="500" y="540"/>
                        </Array>
                    </mxGeometry>
                </mxCell>
                <mxCell id="91" value="" style="curved=1;endArrow=classic;html=1;fontSize=14;exitX=0.5;exitY=1;exitDx=0;exitDy=0;entryX=0.231;entryY=-0.015;entryDx=0;entryDy=0;entryPerimeter=0;" parent="1" source="83" target="89" edge="1">
                    <mxGeometry width="50" height="50" relative="1" as="geometry">
                        <mxPoint x="500" y="590" as="sourcePoint"/>
                        <mxPoint x="550" y="540" as="targetPoint"/>
                        <Array as="points">
                            <mxPoint x="550" y="590"/>
                            <mxPoint x="530" y="530"/>
                            <mxPoint x="500" y="540"/>
                        </Array>
                    </mxGeometry>
                </mxCell>
                <mxCell id="96" value="" style="curved=1;endArrow=classic;html=1;fontSize=14;entryX=0;entryY=0.5;entryDx=0;entryDy=0;exitX=0.43;exitY=1.05;exitDx=0;exitDy=0;exitPerimeter=0;" parent="1" source="81" target="89" edge="1">
                    <mxGeometry width="50" height="50" relative="1" as="geometry">
                        <mxPoint x="230" y="470" as="sourcePoint"/>
                        <mxPoint x="280" y="420" as="targetPoint"/>
                        <Array as="points">
                            <mxPoint x="280" y="470"/>
                            <mxPoint x="170" y="540"/>
                            <mxPoint x="230" y="420"/>
                        </Array>
                    </mxGeometry>
                </mxCell>
                <mxCell id="97" value="Each service will be interconnected and also connected with master service with bidirectional using sockets or pubsub" style="text;html=1;strokeColor=none;fillColor=none;align=left;verticalAlign=top;whiteSpace=wrap;rounded=0;strokeWidth=1;fontSize=14;" parent="1" vertex="1">
                    <mxGeometry x="70" y="-170" width="300" height="90" as="geometry"/>
                </mxCell>
                <mxCell id="98" value="" style="curved=1;endArrow=classic;html=1;fontSize=14;entryX=0.5;entryY=1;entryDx=0;entryDy=0;exitX=0.25;exitY=0;exitDx=0;exitDy=0;" parent="1" source="2" target="97" edge="1">
                    <mxGeometry width="50" height="50" relative="1" as="geometry">
                        <mxPoint x="350" y="-20" as="sourcePoint"/>
                        <mxPoint x="400" y="-70" as="targetPoint"/>
                        <Array as="points">
                            <mxPoint x="350" y="20"/>
                            <mxPoint x="310"/>
                        </Array>
                    </mxGeometry>
                </mxCell>
                <mxCell id="99" value="" style="curved=1;endArrow=classic;html=1;fontSize=14;entryX=0.5;entryY=1;entryDx=0;entryDy=0;exitX=0.101;exitY=-0.07;exitDx=0;exitDy=0;exitPerimeter=0;" parent="1" source="17" target="97" edge="1">
                    <mxGeometry width="50" height="50" relative="1" as="geometry">
                        <mxPoint x="196" y="53" as="sourcePoint"/>
                        <mxPoint x="246" y="3" as="targetPoint"/>
                        <Array as="points">
                            <mxPoint x="246" y="53"/>
                            <mxPoint x="196" y="3"/>
                        </Array>
                    </mxGeometry>
                </mxCell>
                <mxCell id="100" value="" style="curved=1;endArrow=classic;html=1;fontSize=14;entryX=0.5;entryY=1;entryDx=0;entryDy=0;exitX=0;exitY=0.5;exitDx=0;exitDy=0;" parent="1" source="22" target="97" edge="1">
                    <mxGeometry width="50" height="50" relative="1" as="geometry">
                        <mxPoint x="246" y="100" as="sourcePoint"/>
                        <mxPoint x="296" y="50" as="targetPoint"/>
                        <Array as="points">
                            <mxPoint x="270" y="310"/>
                            <mxPoint x="240" y="140"/>
                            <mxPoint x="246" y="50"/>
                        </Array>
                    </mxGeometry>
                </mxCell>
                <mxCell id="101" value="" style="curved=1;endArrow=classic;html=1;fontSize=14;exitX=0;exitY=0.5;exitDx=0;exitDy=0;" parent="1" source="19" target="97" edge="1">
                    <mxGeometry width="50" height="50" relative="1" as="geometry">
                        <mxPoint x="350" y="235" as="sourcePoint"/>
                        <mxPoint x="400" y="185" as="targetPoint"/>
                        <Array as="points">
                            <mxPoint x="400" y="250"/>
                            <mxPoint x="300" y="240"/>
                        </Array>
                    </mxGeometry>
                </mxCell>
            </root>
        </mxGraphModel>
    </diagram>
</mxfile>